<svg width="11" height="10" viewBox="0 0 11 10" fill="none" xmlns="http://www.w3.org/2000/svg">
<path d="M0.74821 5.68019H4.75179V9.31981C4.75179 9.68974 5.08652 10 5.5 10C5.91348 10 6.24821 9.68974 6.24821 9.31981V5.68019H10.2518C10.6587 5.68019 11 5.3759 11 5C11 4.6241 10.6587 4.31981 10.2518 4.31981H6.24821V0.680191C6.24821 0.310263 5.91348 0 5.5 0C5.08652 0 4.75179 0.310263 4.75179 0.680191V4.31981H0.74821C0.341289 4.31981 0 4.6241 0 5C0 5.3759 0.341289 5.68019 0.74821 5.68019Z" fill="#08BB7B"/>
</svg>
